<?xml version="1.0" standalone="no"?>
<!DOCTYPE svg PUBLIC "-//W3C//DTD SVG 20010904//EN"
 "http://www.w3.org/TR/2001/REC-SVG-20010904/DTD/svg10.dtd">
<svg version="1.0" xmlns="http://www.w3.org/2000/svg"
 width="510.000000pt" height="510.000000pt" viewBox="0 0 510.000000 510.000000"
 preserveAspectRatio="xMidYMid meet">
<metadata>
Created by potrace 1.14, written by Peter Selinger 2001-2017
</metadata>
<g transform="translate(0.000000,510.000000) scale(0.100000,-0.100000)"
fill="#000000" stroke="none">
<path d="M2508 4622 c-14 -2 -32 -10 -38 -18 -7 -8 -19 -14 -27 -14 -8 0 -47
-25 -87 -55 -164 -128 -212 -162 -232 -169 -12 -4 -24 -16 -27 -26 -3 -11 -20
-27 -39 -35 -18 -9 -41 -21 -50 -27 -14 -10 -26 -5 -76 34 -91 70 -111 79
-160 66 -36 -9 -43 -15 -52 -47 -5 -20 -10 -84 -10 -142 0 -147 -4 -152 -100
-94 -41 24 -103 65 -137 90 l-62 45 -22 -30 c-12 -16 -37 -34 -55 -40 -22 -7
-34 -19 -36 -33 -2 -16 -13 -23 -45 -30 l-43 -8 0 -93 c0 -51 -3 -96 -7 -100
-4 -4 -8 -15 -8 -24 0 -9 -7 -16 -15 -15 -46 7 -80 19 -122 45 -39 24 -52 27
-79 21 l-32 -9 -2 -79 c-2 -72 -10 -113 -36 -182 l-8 -22 -43 19 c-24 11 -59
20 -79 20 l-37 0 -6 -52 c-4 -29 -6 -82 -5 -118 1 -36 -1 -75 -5 -87 -4 -14
-1 -31 9 -47 12 -18 15 -35 10 -58 -16 -80 -20 -82 -103 -43 -30 14 -65 25
-79 25 -27 0 -52 -24 -53 -49 0 -8 -11 -26 -24 -40 -22 -23 -25 -37 -28 -125
-3 -90 -1 -99 17 -110 29 -16 35 -27 36 -66 l2 -35 7 35 c8 34 8 33 7 -10 -1
-30 -6 -44 -14 -42 -8 1 -13 -8 -13 -20 0 -19 2 -20 10 -8 8 13 10 13 10 -2 0
-9 -4 -28 -10 -42 -9 -26 3 -38 13 -13 15 36 4 -26 -12 -73 -21 -61 -37 -186
-28 -222 4 -14 23 -33 46 -46 46 -26 51 -37 51 -103 0 -43 -3 -51 -25 -61 -22
-10 -30 -26 -26 -51 1 -5 -3 -6 -8 -3 -5 3 -15 -2 -22 -11 -8 -9 -9 -14 -3
-11 7 5 11 -48 12 -164 2 -94 7 -179 13 -190 6 -12 21 -18 44 -18 27 0 37 -6
54 -34 12 -18 30 -36 41 -39 15 -4 20 -14 20 -41 0 -41 14 -46 58 -21 15 8 46
23 70 35 l42 20 0 -35 c0 -32 -4 -37 -49 -60 -54 -27 -67 -40 -51 -50 6 -4 10
-60 10 -139 l0 -132 41 -41 c42 -42 85 -64 75 -37 -7 17 3 18 25 1 9 -7 15
-18 13 -25 -1 -7 0 -8 3 -2 2 5 16 10 29 10 14 0 23 -4 20 -8 -7 -12 34 -56
72 -78 129 -73 187 -107 192 -114 3 -3 25 -14 50 -25 24 -11 58 -32 75 -48 38
-35 81 -57 112 -57 26 0 103 36 103 48 0 5 17 18 38 30 20 11 53 37 72 56 35
35 77 47 85 24 2 -7 7 -79 10 -160 7 -147 7 -148 31 -148 12 0 43 -13 67 -30
25 -16 52 -30 61 -30 9 0 21 -9 28 -20 7 -11 20 -20 28 -20 9 0 20 -4 26 -8 5
-5 24 -15 43 -22 19 -8 45 -24 59 -37 14 -13 37 -26 51 -29 14 -4 42 -21 61
-40 19 -18 46 -38 60 -43 14 -6 32 -15 40 -20 8 -5 41 -21 72 -36 31 -15 59
-32 61 -39 3 -7 20 -16 38 -20 18 -3 41 -13 50 -22 17 -15 21 -15 54 5 20 11
42 21 50 21 7 0 15 7 19 15 3 8 14 15 24 15 11 0 25 7 32 15 7 8 19 15 27 15
13 0 48 15 93 41 8 5 22 12 30 16 8 3 40 21 70 39 30 19 75 44 100 56 26 13
51 35 58 51 9 18 21 27 37 27 24 0 55 23 55 42 0 6 12 8 31 4 26 -5 32 -2 47
24 17 30 37 39 44 20 2 -6 19 3 39 19 34 28 37 35 43 103 3 40 2 87 -3 104 -5
18 -6 47 -2 65 7 32 10 34 44 32 24 -2 51 -13 75 -32 20 -17 64 -44 97 -61 56
-28 63 -29 108 -19 26 6 53 18 60 28 6 9 29 25 50 35 20 11 37 23 37 28 0 4 9
8 20 8 12 0 32 11 46 25 14 14 33 25 43 25 10 0 29 8 42 19 13 10 35 22 49 26
14 4 33 14 43 23 10 9 24 17 32 18 8 1 28 12 44 23 16 12 34 21 39 21 6 0 19
11 30 25 11 14 29 25 39 25 11 0 35 7 53 16 l33 17 -6 132 c-6 132 -6 132 19
154 29 25 28 54 -1 59 -11 1 -44 10 -72 19 -41 13 -53 22 -53 38 0 33 15 48
36 37 11 -5 33 -16 49 -23 17 -7 42 -21 57 -31 39 -26 45 -23 54 29 8 42 13
48 35 51 20 2 26 8 22 21 -3 14 3 20 26 24 18 4 31 13 31 21 0 9 12 16 33 18
l32 3 -4 225 -3 224 -29 51 c-31 55 -30 90 2 100 37 12 41 37 30 223 -6 97
-16 227 -22 288 -6 61 -9 159 -7 217 3 94 1 107 -13 107 -9 0 -23 7 -30 16
-21 26 -97 14 -153 -24 -54 -37 -72 -40 -81 -13 -11 36 -9 156 4 179 8 15 9
28 2 40 -5 10 -11 58 -13 107 l-3 90 -34 -3 c-19 -2 -51 -12 -70 -23 -38 -20
-86 -25 -96 -10 -3 6 0 29 6 53 13 49 12 188 -2 202 -5 6 -9 18 -9 27 0 15 -6
17 -37 12 -21 -3 -49 -13 -62 -22 -47 -31 -116 -70 -127 -71 -11 0 -13 24 -13
138 0 34 -5 79 -11 98 -11 32 -15 35 -41 29 -23 -5 -37 0 -69 26 -22 18 -40
39 -40 46 0 10 -5 11 -17 4 -13 -7 -23 -5 -36 6 -23 21 -41 12 -138 -66 -42
-33 -81 -61 -86 -61 -5 0 -28 -14 -51 -31 -23 -17 -46 -28 -52 -24 -13 8 -13
101 0 125 10 19 14 98 7 155 -2 17 -5 42 -5 56 -1 16 -11 31 -26 38 -22 12
-29 9 -94 -43 -38 -31 -75 -56 -83 -56 -35 -1 -129 36 -135 53 -3 9 -13 17
-23 17 -9 0 -35 13 -57 29 -21 16 -49 32 -62 36 -13 3 -42 26 -65 50 -23 24
-63 53 -89 65 -26 11 -50 25 -53 30 -3 6 -14 10 -24 10 -10 0 -23 11 -30 23
-13 24 -29 27 -93 19z m71 -225 c9 -13 8 -23 0 -39 l-12 -22 -22 28 -23 29
-16 -32 c-9 -17 -21 -29 -27 -25 -6 4 -4 13 6 24 10 11 14 26 11 38 -6 17 -2
19 33 18 26 0 43 -7 50 -19z m73 -58 c5 -3 6 -13 2 -22 -5 -13 -10 -9 -25 20
-11 21 -16 45 -13 53 5 11 9 7 17 -15 5 -16 14 -33 19 -36z m-212 -19 c-6 -12
-14 -20 -17 -17 -2 3 1 14 8 26 17 26 24 19 9 -9z m270 16 c0 -8 7 -22 16 -30
14 -14 14 -18 0 -38 l-16 -22 0 26 c0 15 -4 30 -10 33 -5 3 -10 15 -10 26 0
10 5 19 10 19 6 0 10 -6 10 -14z m-335 -66 c-5 -15 -10 -19 -17 -12 -7 7 -6
15 3 25 18 19 23 14 14 -13z m183 8 c10 -10 17 -10 31 -1 17 10 19 8 25 -25 3
-20 6 -53 6 -73 0 -46 26 -61 40 -23 6 14 10 40 11 57 l1 32 10 -32 c8 -24 7
-43 -4 -77 -15 -44 -10 -74 10 -62 14 8 52 83 52 101 0 8 4 15 9 15 4 0 4 -23
-1 -51 -11 -62 1 -82 32 -54 21 19 28 7 8 -13 -10 -10 -10 -15 2 -22 22 -14
25 -13 55 26 34 44 43 39 15 -9 -21 -36 -20 -57 4 -57 6 0 30 18 51 40 49 50
62 52 30 4 -47 -69 -22 -95 36 -38 45 44 48 41 15 -24 -23 -45 -23 -48 -5 -49
11 -1 35 17 59 45 45 53 53 42 15 -18 -49 -78 -19 -97 41 -25 42 49 59 54 25
7 -42 -60 -14 -97 37 -49 l24 22 -13 -28 c-11 -24 -11 -30 1 -37 9 -6 19 -5
24 0 25 25 25 -9 1 -38 -3 -3 -33 10 -150 63 -27 13 -86 39 -130 59 -44 20
-88 41 -98 47 -10 5 -66 30 -125 55 -153 64 -146 57 -127 128 6 21 5 27 -3 22
-8 -5 -14 7 -18 33 -8 48 -26 45 -43 -7 -9 -27 -10 -45 -2 -65 6 -16 11 -35
11 -42 0 -12 -176 -105 -197 -105 -2 0 -50 -22 -106 -49 -161 -78 -339 -161
-344 -161 -19 0 -752 -372 -768 -390 -19 -21 -20 -36 -20 -329 0 -363 14
-1283 20 -1361 3 -30 3 -50 0 -44 -8 17 -64 8 -112 -18 -43 -22 -67 -20 -41 4
7 7 36 25 63 40 83 45 57 80 -39 53 -42 -12 -26 7 31 34 60 30 58 28 43 45 -8
11 -25 14 -58 11 l-47 -5 52 25 c58 27 68 51 26 61 -47 10 -49 11 -23 22 40
16 54 37 34 53 -12 10 -24 10 -57 2 -60 -16 -57 -9 8 21 42 19 56 30 53 43 -3
14 -12 17 -46 15 -54 -3 -54 10 1 28 31 11 43 21 45 39 4 23 2 24 -43 19 -50
-6 -51 1 -2 18 38 13 58 41 38 53 -7 5 -32 6 -55 4 -50 -7 -40 10 19 30 28 10
40 20 40 33 0 15 -9 20 -50 24 l-50 5 35 9 c71 17 85 56 19 56 -49 0 -49 21 0
31 47 10 61 27 37 45 -11 8 -32 14 -48 14 -15 0 -28 5 -28 10 0 6 13 10 29 10
16 0 35 7 42 16 11 14 10 18 -6 30 -10 8 -28 14 -39 15 -14 1 -10 4 12 10 17
5 32 16 32 24 0 17 -30 35 -59 35 -12 0 -21 5 -21 11 0 8 11 9 31 5 31 -6 59
6 59 26 0 5 -16 16 -35 24 -33 14 -52 32 -20 20 8 -3 22 -3 30 0 28 11 15 36
-27 52 l-43 17 45 5 c60 7 66 33 14 57 l-37 18 34 5 c26 4 34 10 34 25 0 15
-12 24 -42 35 -52 18 -56 31 -8 28 66 -4 70 43 5 57 -16 3 -35 14 -42 22 -11
15 -10 16 12 9 49 -16 75 -12 75 9 0 13 -14 26 -43 39 -52 26 -55 38 -6 24 46
-12 66 2 40 31 -17 18 -17 20 1 30 17 10 17 12 -5 30 -22 19 -22 20 -2 26 26
8 26 35 0 42 -25 7 -25 15 0 31 30 19 24 31 -25 53 -25 11 -45 24 -45 29 0 13
1 13 45 -6 34 -14 39 -14 53 0 13 12 14 18 4 28 -17 17 -15 25 9 31 19 5 20 8
7 26 -21 29 -104 91 -122 91 -9 0 -16 5 -16 11 0 5 5 7 10 4 6 -3 10 -1 10 5
0 6 12 2 27 -9 24 -20 28 -20 49 -6 29 19 34 19 34 1 0 -20 46 -55 68 -51 10
1 16 9 14 20 -3 16 -2 16 18 2 25 -17 50 -12 50 9 0 11 4 12 19 4 11 -5 27 -7
36 -4 14 6 14 9 -1 33 -17 26 -17 26 3 9 27 -24 53 -23 53 2 0 18 3 19 20 10
14 -8 20 -8 20 0 0 6 5 8 11 4 8 -4 9 1 4 17 -7 21 -6 22 8 10 17 -13 47 -9
47 7 0 5 -11 26 -26 47 l-25 37 42 -36 c24 -20 46 -36 51 -36 15 0 21 31 9 43
-19 19 -12 31 8 13 10 -9 25 -14 35 -10 19 7 19 6 2 49 -8 19 -11 37 -6 40 5
3 11 -4 15 -15 3 -11 18 -29 32 -40 35 -27 46 -10 28 41 -8 21 -10 41 -6 44 5
3 12 -6 15 -19 8 -31 54 -62 69 -47 9 9 8 17 -1 32 -21 34 -8 32 23 -3 26 -29
29 -30 35 -12 4 11 1 29 -8 42 -20 31 -7 40 21 14 34 -32 59 -29 51 6 -4 15
-14 35 -22 45 -32 36 -4 25 32 -13 21 -22 42 -40 47 -40 11 0 5 49 -10 78 -10
18 -9 22 3 22 9 0 20 -9 26 -21 9 -16 14 -18 25 -9 11 9 12 17 5 30 -21 40 -8
43 26 7 33 -35 54 -41 54 -14 0 8 -3 8 -9 -1 -6 -10 -11 -10 -21 3 -11 13 -11
18 -1 25 9 5 11 16 6 31 -5 17 2 12 26 -18 25 -33 36 -40 46 -31 10 8 13 7 14
-3 0 -10 2 -10 5 -2 3 7 0 21 -6 33 -10 19 -10 20 10 8 26 -16 39 0 33 40 -4
26 -4 26 11 8 15 -19 22 -12 17 17 -2 15 26 6 44 -13 25 -27 50 -9 33 24 -11
20 -10 20 8 6 10 -8 22 -19 25 -24 4 -5 11 -6 17 -2 7 4 5 22 -4 53 -18 58
-11 67 13 17 19 -41 48 -53 47 -19 0 11 -3 38 -7 60 -5 31 -5 35 3 17 13 -32
42 -66 59 -70 10 -2 11 7 6 36 -6 36 -5 38 22 37 25 0 28 3 29 35 0 25 5 36
17 38 13 3 17 -4 17 -27 0 -24 4 -31 20 -31 21 0 25 12 21 69 -2 19 1 31 7 27
5 -3 18 1 28 9 24 18 37 18 52 3z m222 -4 c0 -8 -4 -12 -10 -9 -5 3 -10 10
-10 16 0 5 5 9 10 9 6 0 10 -7 10 -16z m84 -39 c7 -27 1 -45 -14 -45 -10 0
-22 48 -15 60 11 17 23 11 29 -15z m-69 -5 c3 -5 1 -10 -4 -10 -6 0 -11 5 -11
10 0 6 2 10 4 10 3 0 8 -4 11 -10z m-348 -22 c-3 -8 -6 -5 -6 6 -1 11 2 17 5
13 3 -3 4 -12 1 -19z m736 1 c-3 -11 -16 -25 -30 -30 -13 -5 -28 -19 -33 -31
l-9 -23 0 22 c-1 13 13 33 36 52 21 17 38 31 39 31 1 0 0 -9 -3 -21z m-243
-41 c0 -5 -4 -8 -10 -8 -14 0 -32 39 -24 52 6 10 33 -25 34 -44z m361 -65 c-1
-83 -5 -111 -18 -125 -9 -10 -19 -18 -23 -18 -4 0 -8 54 -9 120 -2 117 -1 120
21 129 13 5 25 7 27 5 2 -1 3 -51 2 -111z m-1475 89 c10 -6 26 -222 16 -222
-2 0 -12 5 -23 10 -17 10 -19 22 -19 115 0 102 3 113 26 97z m415 -15 c-10 -9
-11 -8 -5 6 3 10 9 15 12 12 3 -3 0 -11 -7 -18z m753 -14 c10 -25 -10 -39 -23
-15 -10 19 -6 32 10 32 4 0 10 -8 13 -17z m-164 -27 c0 -2 -7 -9 -15 -16 -13
-11 -14 -10 -9 4 5 14 24 23 24 12z m-139 -43 c-8 -15 -10 -15 -11 -2 0 17 10
32 18 25 2 -3 -1 -13 -7 -23z m1149 -88 c0 -14 -4 -25 -10 -25 -11 0 -14 33
-3 43 11 11 13 8 13 -18z m-2588 -53 c-2 -34 -8 -60 -13 -57 -8 5 -3 81 7 114
8 25 10 7 6 -57z m2395 24 c-17 -18 -55 -25 -59 -11 -2 6 7 11 19 13 12 2 27
10 34 19 8 9 15 11 17 4 2 -6 -3 -17 -11 -25z m87 -4 c-13 -7 -24 -18 -25 -25
0 -7 -5 1 -10 18 -10 35 3 47 36 31 l24 -11 -25 -13z m-2274 8 c11 -11 27 -20
35 -20 8 0 15 -5 15 -10 0 -22 -99 20 -100 43 0 14 30 7 50 -13z m147 -42 c-2
-13 -4 -3 -4 22 0 25 2 35 4 23 2 -13 2 -33 0 -45z m1120 -39 c98 -45 183 -84
188 -88 6 -4 55 -27 110 -51 55 -23 142 -62 193 -86 52 -24 95 -44 97 -44 2 0
52 -23 112 -51 59 -28 150 -71 202 -96 193 -90 261 -127 261 -140 0 -7 -7 -13
-15 -13 -20 0 -19 -37 0 -48 19 -10 21 -94 30 -972 l6 -565 -93 -47 c-82 -41
-94 -45 -99 -29 -4 9 -26 29 -49 45 -23 15 -39 30 -36 33 3 3 18 -2 33 -12 17
-12 28 -14 31 -7 2 6 10 8 19 5 32 -12 2 17 -60 59 -34 23 -88 59 -119 80 -31
21 -59 42 -63 47 -8 15 105 -37 140 -63 30 -22 69 -41 135 -66 19 -7 41 -18
48 -23 7 -5 15 -7 19 -3 4 3 -2 13 -13 21 -16 13 -16 14 -1 9 32 -11 17 6 -38
42 -30 20 -55 39 -55 42 0 2 19 2 42 -1 27 -4 37 -2 27 4 -10 6 -11 9 -1 9 9
0 7 9 -8 30 -19 27 -19 29 -3 23 10 -3 23 -10 29 -14 6 -5 25 -10 43 -11 69
-6 65 63 -6 105 l-38 22 28 3 c40 5 36 38 -8 64 -44 25 -42 50 4 59 18 4 40
14 48 22 14 14 13 18 -11 42 -14 14 -24 30 -21 35 8 13 -5 38 -23 43 -13 4
-11 5 4 6 26 1 48 26 39 41 -4 6 -17 15 -29 20 l-21 9 21 0 c33 1 48 25 29 44
-14 14 -14 17 1 25 26 15 10 42 -25 42 -16 0 -33 5 -36 10 -3 6 4 10 18 10 13
0 32 10 43 21 19 21 19 21 -2 37 l-20 16 24 21 c31 26 21 55 -19 55 -24 0 -29
4 -29 26 0 15 4 23 10 19 16 -10 40 15 40 41 0 25 -8 28 -65 26 l-30 -1 30 14
c17 8 35 14 41 15 6 0 19 9 28 19 23 25 6 61 -28 61 -13 0 -26 7 -30 15 -3 8
-15 15 -26 15 -32 0 -23 15 10 18 24 2 30 -2 30 -19 0 -14 5 -19 17 -17 23 4
30 38 9 38 -9 0 -16 5 -16 10 0 6 5 10 10 10 13 0 13 33 0 46 -8 8 -6 15 5 24
19 16 20 59 0 66 -8 4 -33 -1 -55 -10 -22 -9 -40 -14 -40 -11 0 3 17 12 37 20
68 29 92 64 55 84 -12 6 -29 3 -57 -10 -60 -30 -66 -16 -7 17 51 28 70 53 57
74 -10 16 -44 12 -73 -9 -34 -23 -92 -53 -92 -47 0 3 27 24 60 47 80 56 81
105 2 73 -30 -12 -32 -12 -22 6 26 49 -14 63 -71 25 -37 -24 -39 -25 -29 -5
17 31 5 53 -25 47 -21 -3 -24 -1 -20 13 3 10 -2 25 -10 34 -19 19 -21 19 -45
6 -15 -8 -20 -6 -25 11 -7 22 -12 22 -91 3 -24 -5 -27 -4 -16 7 17 19 15 56
-5 63 -10 4 -29 -2 -47 -15 -21 -16 -28 -18 -23 -7 3 10 -6 24 -25 38 -25 18
-34 20 -54 12 -22 -11 -23 -10 -12 13 6 13 8 31 5 39 -8 20 -42 21 -59 2 -10
-11 -14 -10 -23 8 -15 31 -43 32 -56 2 -7 -14 -16 -23 -20 -20 -5 3 -5 13 0
22 20 39 -27 60 -56 25 -14 -17 -14 -17 -9 1 13 40 -21 79 -49 56 -9 -8 -14
-6 -19 5 -3 8 -15 15 -26 15 -11 0 -31 6 -43 14 -26 17 -102 38 -135 37 -17
-1 -24 6 -28 29 -8 37 -27 54 -54 45 -15 -5 -20 -15 -21 -43 -1 -22 -3 -29 -6
-17 -9 35 -22 44 -61 38 -20 -3 -43 -11 -51 -17 -11 -8 -15 -8 -19 2 -2 7 -10
19 -19 27 -19 20 -50 4 -59 -30 -4 -15 -13 -25 -24 -25 -11 0 -21 -4 -24 -8
-3 -5 -18 -7 -35 -4 -22 3 -33 -1 -43 -17 -7 -12 -22 -21 -34 -21 -12 0 -27
-7 -34 -15 -7 -8 -23 -15 -36 -15 -12 0 -26 -4 -29 -10 -3 -5 -14 -10 -24 -10
-29 0 -43 -23 -31 -54 10 -27 2 -34 -17 -15 -14 14 -33 3 -33 -18 0 -13 -5
-12 -24 6 -27 25 -66 22 -66 -5 0 -11 -6 -13 -20 -9 -26 8 -50 -10 -50 -37 0
-15 -5 -19 -20 -15 -22 6 -50 -16 -50 -39 0 -12 -5 -11 -26 5 -35 28 -52 26
-64 -4 -5 -14 -17 -25 -25 -25 -9 0 -18 -7 -21 -15 -4 -8 -10 -12 -16 -9 -5 3
-17 -1 -26 -9 -9 -9 -33 -17 -52 -19 -31 -3 -35 -6 -35 -30 1 -21 -4 -28 -18
-28 -10 0 -21 -9 -24 -20 -6 -21 -28 -27 -38 -10 -9 14 -65 12 -66 -2 -1 -7
-1 -21 0 -30 2 -14 -5 -18 -28 -18 -33 0 -37 -9 -20 -42 10 -19 9 -20 -7 -13
-43 17 -53 16 -63 -4 -12 -22 0 -40 45 -68 17 -11 15 -11 -13 -6 -24 4 -33 1
-42 -15 -8 -16 -6 -24 15 -43 l26 -24 -24 -5 c-46 -11 -33 -57 26 -85 29 -14
31 -19 33 -74 l2 -60 -42 -3 c-37 -3 -42 -6 -45 -30 -3 -22 2 -29 22 -34 14
-3 26 -11 26 -16 0 -5 -6 -8 -12 -5 -38 13 -65 -42 -31 -62 10 -5 15 -13 11
-17 -5 -4 -2 -14 4 -22 10 -11 9 -17 -5 -27 -24 -18 -22 -52 5 -61 l23 -7 -23
-8 c-12 -5 -25 -15 -28 -24 -11 -28 16 -45 75 -46 31 -1 47 -3 36 -6 -11 -2
-30 -6 -43 -9 -15 -3 -22 -11 -20 -22 2 -9 -5 -22 -17 -27 -11 -6 -20 -19 -20
-30 0 -15 8 -21 33 -23 24 -2 32 -8 32 -23 0 -10 -4 -19 -10 -19 -5 0 -10 5
-10 10 0 6 -9 10 -20 10 -23 0 -27 -28 -6 -36 8 -3 24 0 36 6 12 6 24 9 28 6
8 -8 -29 -35 -49 -36 -9 0 -22 -7 -29 -15 -10 -13 -10 -19 3 -33 15 -17 15
-19 -3 -35 -24 -20 -26 -53 -5 -61 9 -3 35 1 58 8 87 28 95 29 93 1 0 -14 -6
-25 -12 -25 -6 0 -17 -7 -24 -15 -7 -8 -16 -12 -21 -9 -14 8 -79 -49 -79 -70
0 -14 5 -17 23 -11 12 3 29 7 37 7 8 0 21 5 28 11 7 5 15 8 17 5 3 -3 -22 -22
-56 -43 -61 -38 -87 -71 -76 -99 10 -26 53 -18 138 25 92 46 115 48 36 3 -55
-32 -70 -60 -42 -80 14 -11 9 -16 -42 -46 -38 -23 -59 -42 -61 -56 -7 -44 27
-36 169 37 76 39 139 68 139 62 0 -5 -6 -11 -13 -14 -7 -3 -59 -34 -114 -70
-85 -55 -101 -69 -96 -86 8 -30 28 -26 111 19 39 22 72 37 72 35 0 -2 -24 -20
-54 -40 -30 -19 -56 -44 -59 -55 -6 -24 -25 -18 -142 43 l-80 42 -6 370 c-3
204 -7 566 -8 807 l-1 436 46 26 c26 14 83 42 128 62 44 19 88 39 96 44 17 11
360 180 365 180 2 0 60 27 129 60 69 33 128 60 130 60 3 0 71 32 153 71 217
105 287 138 295 138 4 1 87 -35 185 -80z m1110 49 c-3 -8 -6 -5 -6 6 -1 11 2
17 5 13 3 -3 4 -12 1 -19z m-617 8 c0 -2 -8 -10 -17 -17 -16 -13 -17 -12 -4 4
13 16 21 21 21 13z m61 -129 c-8 -20 -7 -27 7 -32 11 -4 26 4 45 27 l28 33
-15 -32 c-19 -37 -20 -47 -6 -38 6 3 10 -1 10 -10 0 -12 7 -9 26 12 l25 28
-17 -28 c-15 -24 -15 -30 -3 -38 22 -14 24 -12 65 39 49 62 62 74 39 37 -34
-54 -54 -98 -49 -106 8 -13 -4 -11 -34 5 -15 8 -63 32 -107 53 -60 28 -74 38
-57 41 12 2 27 12 33 24 15 27 22 17 10 -15z m589 19 c0 -3 -4 -8 -10 -11 -5
-3 -10 -1 -10 4 0 6 5 11 10 11 6 0 10 -2 10 -4z m-314 -77 c-28 -33 -31 -46
-16 -69 8 -12 18 -7 56 33 25 26 47 47 50 47 3 0 -9 -20 -26 -44 -52 -76 -32
-105 30 -41 39 40 47 40 26 0 -11 -21 -12 -30 -3 -40 10 -10 14 -10 20 1 12
20 27 17 27 -6 0 -28 24 -25 52 8 22 27 58 48 58 35 0 -3 -16 -23 -35 -44 -35
-39 -43 -63 -26 -73 8 -5 37 18 96 75 38 35 35 20 -5 -33 -22 -29 -40 -56 -40
-60 0 -21 38 -3 82 38 54 50 76 53 35 4 -24 -28 -27 -60 -6 -60 5 0 30 19 54
41 25 23 45 37 45 32 0 -5 -5 -14 -11 -20 -6 -6 -12 -22 -13 -36 -4 -30 11
-27 62 11 25 19 36 22 44 14 7 -7 10 -13 7 -15 -2 -2 -21 -16 -41 -31 -35 -26
-47 -53 -31 -69 3 -4 31 7 61 24 72 40 76 31 7 -15 -86 -57 -68 -107 19 -55
20 12 36 16 36 11 0 -6 -18 -18 -40 -28 -41 -18 -60 -48 -42 -66 6 -6 20 -4
40 6 35 18 42 19 42 8 0 -4 -20 -18 -45 -30 -32 -16 -45 -28 -45 -43 0 -22 10
-23 80 -4 l25 6 -23 -18 c-69 -54 -75 -60 -67 -72 5 -9 20 -11 44 -7 36 6 36
6 14 -11 -12 -10 -34 -26 -48 -36 -35 -25 -21 -40 31 -34 24 2 44 1 44 -3 0
-5 -20 -18 -45 -30 -29 -14 -45 -28 -45 -40 0 -26 12 -31 49 -20 41 12 39 5
-10 -25 -62 -40 -43 -75 29 -51 40 13 24 -13 -19 -30 -31 -13 -39 -21 -37 -38
3 -18 9 -21 41 -19 48 3 47 -10 -2 -27 -67 -22 -66 -66 1 -57 48 6 47 -11 -2
-27 -25 -8 -36 -18 -38 -35 -4 -23 -2 -24 37 -18 47 6 56 -10 11 -19 -65 -13
-68 -69 -3 -59 l38 6 -38 -17 c-52 -23 -47 -50 7 -46 47 5 41 -13 -9 -22 -40
-8 -51 -21 -34 -42 8 -10 22 -13 45 -8 54 10 43 -19 -12 -34 -34 -9 -45 -17
-42 -30 2 -12 15 -18 46 -20 53 -4 61 -32 8 -32 -35 0 -63 -21 -51 -40 3 -5
24 -13 46 -16 25 -4 39 -12 39 -21 0 -11 -7 -13 -25 -9 -31 8 -66 -9 -59 -29
6 -14 37 -29 63 -30 8 0 16 -6 19 -14 3 -10 -2 -12 -21 -7 -63 15 -78 -27 -17
-51 52 -21 51 -34 -2 -31 -34 2 -43 -1 -46 -15 -3 -13 9 -23 42 -38 60 -26 66
-38 15 -32 -71 10 -73 -33 -2 -62 47 -20 42 -35 -8 -21 -32 8 -42 8 -49 -3
-13 -22 -2 -37 41 -56 53 -24 60 -38 15 -30 -29 6 -37 4 -42 -10 -4 -10 -1
-21 7 -26 8 -4 23 -15 34 -24 20 -16 20 -16 -4 -11 -24 5 -51 -8 -51 -25 0 -5
23 -20 50 -34 28 -14 50 -30 50 -35 0 -13 -4 -13 -45 7 -33 16 -36 16 -52 0
-13 -13 -14 -20 -5 -29 9 -9 8 -16 -6 -31 -16 -18 -16 -20 13 -43 17 -13 38
-27 48 -30 9 -3 17 -10 17 -15 0 -18 -25 -9 -75 26 -27 20 -51 31 -53 25 -5
-13 -35 -13 -49 1 -19 19 -46 2 -41 -26 6 -28 1 -30 -25 -10 -23 16 -47 9 -47
-14 0 -12 -8 -17 -27 -16 -24 0 -28 -4 -28 -26 1 -26 0 -26 -23 -11 -23 15
-26 15 -42 -6 -10 -12 -25 -22 -34 -22 -9 0 -16 -5 -16 -10 0 -6 -12 -9 -27
-8 -22 2 -29 -2 -31 -19 -3 -19 -7 -21 -22 -13 -15 8 -23 5 -40 -12 -11 -12
-28 -23 -37 -24 -10 -2 -19 -8 -21 -13 -2 -6 -15 -11 -29 -11 -17 0 -27 -7
-30 -20 -4 -15 -9 -18 -18 -10 -32 26 -63 -28 -33 -58 24 -24 -7 -11 -33 14
-29 28 -59 27 -59 -2 0 -8 16 -36 36 -60 20 -25 35 -47 32 -49 -3 -3 -24 17
-47 45 -67 79 -115 60 -51 -20 17 -21 30 -43 30 -50 0 -7 -19 10 -42 39 -65
80 -110 58 -53 -27 37 -55 10 -53 -39 3 -33 39 -46 46 -63 41 -27 -9 -22 -26
24 -80 18 -22 33 -43 33 -48 0 -19 -17 -4 -55 46 -36 49 -54 60 -70 44 -3 -3
-1 -18 5 -34 11 -27 10 -27 -8 -11 -25 23 -52 22 -52 -1 0 -11 14 -38 30 -60
42 -58 24 -52 -25 8 -22 27 -47 48 -55 47 -22 -3 -24 -36 -3 -60 12 -14 7 -12
-16 6 -61 50 -77 17 -24 -50 18 -23 33 -46 33 -52 0 -21 -19 -11 -34 17 -8 15
-28 40 -46 57 -25 24 -33 27 -40 16 -10 -17 -4 -34 31 -86 15 -22 25 -44 22
-48 -3 -5 -22 16 -42 47 -36 56 -63 70 -75 39 -5 -11 4 -33 22 -59 20 -28 27
-46 21 -55 -7 -11 -9 -11 -9 3 0 9 -4 18 -8 20 -4 2 -18 20 -31 41 -37 61 -74
40 -46 -27 21 -49 40 -65 72 -60 15 3 30 8 33 12 3 4 16 8 30 10 24 2 24 2 5
-10 -11 -6 -22 -11 -25 -11 -13 2 -79 -60 -74 -69 4 -6 -1 -8 -12 -4 -11 3
-30 -1 -44 -9 -14 -8 -41 -21 -61 -30 -20 -9 -41 -27 -47 -41 -7 -13 -16 -24
-22 -24 -14 0 -13 9 5 26 10 11 16 39 17 87 l1 72 7 -55 c4 -30 8 -46 9 -35 8
55 7 102 -1 124 -11 29 -2 61 18 61 8 0 14 4 14 9 0 8 34 27 190 105 41 20 83
41 92 47 10 5 23 9 30 9 16 0 140 62 149 74 4 5 11 6 17 2 6 -3 13 -2 16 3 7
10 102 60 156 81 19 8 40 18 45 22 12 9 266 139 507 260 102 51 182 97 188
109 7 12 9 55 6 112 -3 51 -8 364 -11 697 -3 333 -8 678 -12 768 l-6 163 -27
19 c-28 20 -138 73 -392 189 l-136 63 61 60 c62 60 91 65 43 7z m-2112 -15 c3
-8 2 -12 -4 -9 -6 3 -10 10 -10 16 0 14 7 11 14 -7z m763 -76 c-3 -8 -6 -5 -6
6 -1 11 2 17 5 13 3 -3 4 -12 1 -19z m362 -41 c0 -27 -2 -29 -9 -12 -12 28
-12 57 0 50 6 -3 10 -21 9 -38z m344 28 c-3 -9 -8 -14 -10 -11 -3 3 -2 9 2 15
9 16 15 13 8 -4z m-404 -99 c1 -24 -5 -47 -16 -58 -9 -10 -11 -18 -5 -18 20 0
42 31 42 61 0 16 5 29 10 29 6 0 10 -18 10 -40 0 -22 -4 -40 -9 -40 -5 0 -12
-8 -15 -17 -6 -15 -4 -15 14 2 11 10 20 32 21 49 l1 31 9 -32 c5 -18 16 -33
24 -33 9 0 15 -10 15 -26 0 -14 -4 -23 -10 -19 -5 3 -10 -1 -10 -9 0 -11 -9
-16 -29 -16 -40 0 -90 -58 -147 -172 -53 -107 -69 -128 -98 -128 -52 0 -103
-59 -130 -151 -9 -28 -27 -72 -41 -96 -14 -24 -32 -76 -40 -116 -8 -41 -23
-99 -35 -130 -20 -52 -20 -59 -6 -109 8 -29 20 -79 26 -111 7 -33 20 -77 29
-98 27 -60 19 -213 -16 -292 -21 -50 -24 -67 -18 -118 4 -32 11 -61 16 -64 10
-7 0 -35 -18 -53 -7 -7 -19 -22 -27 -34 -14 -20 -14 -20 -50 7 -37 28 -46 49
-23 58 13 6 -16 10 -45 8 -39 -4 -26 25 46 99 42 43 76 82 76 88 0 5 -6 14
-13 20 -10 9 -30 -2 -82 -43 -38 -30 -71 -55 -74 -55 -3 0 17 22 44 50 27 27
47 52 44 55 -3 2 -31 -18 -62 -46 -69 -61 -75 -53 -10 13 64 65 41 61 -30 -5
-38 -36 -60 -50 -66 -43 -13 17 -19 66 -10 72 12 7 11 24 0 24 -5 0 -17 -7
-26 -16 -18 -19 -17 -20 -35 26 -8 19 -16 37 -19 40 -12 11 -41 68 -61 124
-20 53 -24 57 -47 51 -14 -3 -31 -1 -39 5 -7 7 -18 9 -23 5 -6 -3 -8 0 -5 9 3
8 0 24 -6 36 -10 18 -8 26 11 46 19 21 20 24 5 30 -20 7 -21 24 -2 24 10 0 13
13 12 45 -1 51 16 65 24 20 4 -22 7 -26 12 -13 9 22 -1 58 -17 58 -25 0 -36
26 -23 55 9 20 9 31 0 46 -7 10 -12 29 -12 42 0 18 -8 27 -32 35 l-33 12 35
-5 c19 -3 40 -12 46 -20 6 -8 16 -15 23 -15 6 0 11 -15 12 -32 0 -29 2 -27 13
17 8 28 19 82 26 120 14 75 26 92 50 71 23 -21 85 -40 104 -33 21 8 13 24 -36
66 l-37 32 -21 -23 -21 -23 17 40 c9 22 20 45 26 52 13 16 48 85 48 95 0 4
-10 8 -21 8 -17 0 -19 -3 -11 -13 9 -10 6 -22 -11 -48 -13 -19 -29 -48 -36
-65 -10 -26 -17 -30 -37 -26 -20 4 -25 1 -22 -13 2 -14 -5 -19 -29 -22 -18 -2
-33 0 -33 6 0 5 9 7 20 4 14 -4 20 0 20 11 0 9 9 21 20 28 24 15 26 28 5 28
-16 0 -19 9 -9 34 3 9 10 14 15 11 4 -3 20 -3 33 1 21 5 25 10 20 30 -5 19 -2
24 12 25 11 0 14 3 7 6 -17 6 -16 18 3 37 14 14 11 21 -35 69 -58 62 -67 91
-23 81 15 -4 39 -13 53 -21 21 -12 24 -21 21 -47 -6 -41 15 -23 24 20 5 27 2
34 -28 52 l-33 22 27 0 c17 0 38 -11 55 -28 32 -32 65 -49 57 -28 -3 7 -16 19
-30 26 -24 13 -32 30 -15 30 5 0 9 21 8 46 0 42 -2 45 -24 41 -24 -4 -33 8
-10 16 17 6 63 -19 70 -38 4 -8 11 -15 17 -15 7 0 25 -13 42 -30 16 -16 39
-30 51 -29 l22 0 -22 9 c-13 5 -23 17 -23 26 0 16 2 16 20 -1 12 -11 20 -13
20 -6 0 12 -10 26 -46 66 -19 21 -19 24 -4 42 22 28 45 21 87 -26 23 -27 44
-41 60 -41 20 0 22 -3 14 -18 -10 -20 1 -43 42 -89 18 -20 21 -20 35 -6 14 13
14 19 0 56 -8 23 -25 47 -37 53 -19 10 -20 13 -6 24 8 7 15 26 15 43 0 29 1
29 14 12 12 -17 15 -18 30 -3 9 9 16 23 16 30 0 8 4 7 11 -4 5 -10 20 -18 33
-18 20 0 24 -6 29 -41 6 -49 26 -73 51 -63 18 7 18 17 0 88 -5 23 -2 28 26 37
22 8 28 15 21 22 -16 16 -13 47 5 47 10 0 13 6 10 18 -5 15 1 18 36 18 38 1
40 0 23 -12 -10 -8 -24 -14 -31 -14 -6 0 -14 -13 -16 -30 -3 -16 -1 -30 4 -30
4 0 8 6 8 14 0 20 17 29 59 30 l36 1 4 70 c3 56 5 64 11 40 4 -16 8 -48 9 -69z
m224 32 c6 -4 15 -2 19 5 5 8 8 4 8 -10 0 -43 -47 -67 -76 -39 -18 19 -18 30
1 46 8 7 15 22 16 34 0 19 1 19 10 -4 6 -13 15 -28 22 -32z m1537 42 c0 -5 -5
-10 -11 -10 -5 0 -7 5 -4 10 3 6 8 10 11 10 2 0 4 -4 4 -10z m-1813 -52 c-2
-13 -4 -5 -4 17 -1 22 1 32 4 23 2 -10 2 -28 0 -40z m215 20 c-6 -6 -16 -7
-23 -3 -9 6 -7 12 7 22 21 15 34 -1 16 -19z m-306 -4 c-10 -22 -12 -22 -23 -7
-18 24 -16 31 10 31 22 0 23 -3 13 -24z m460 -51 c14 -10 15 -16 6 -25 -7 -7
-12 -17 -12 -22 0 -6 7 -2 15 8 20 26 27 17 16 -22 -8 -25 -7 -32 5 -32 8 0
14 -5 14 -10 0 -24 43 14 58 51 10 26 21 38 31 37 9 -2 15 3 14 10 -2 6 2 12
7 12 6 0 10 -4 10 -8 0 -5 11 -14 24 -21 22 -12 23 -17 14 -48 -7 -27 -7 -38
4 -44 11 -7 11 -12 -1 -30 -12 -20 -11 -24 5 -36 25 -18 64 -16 86 4 20 18 25
4 6 -15 -9 -9 -9 -12 1 -12 8 0 11 -6 7 -15 -7 -19 -1 -19 29 1 25 16 25 16
19 -13 -5 -25 -1 -34 25 -56 32 -26 61 -27 61 -1 0 8 4 14 9 14 6 0 3 -16 -5
-36 -8 -20 -13 -43 -10 -50 4 -10 -2 -14 -19 -14 -30 0 -43 -34 -21 -56 19
-18 34 -11 47 23 l9 25 29 -33 c16 -18 36 -45 45 -61 17 -27 16 -28 -3 -28
-22 0 -41 -27 -34 -47 6 -18 28 -16 43 2 7 8 18 15 24 15 13 0 46 -61 46 -84
0 -7 8 -24 19 -37 10 -13 21 -42 25 -64 4 -22 11 -44 16 -50 18 -23 34 -344
19 -375 -5 -8 -11 -40 -14 -70 -8 -72 -16 -86 -43 -71 -11 6 -31 11 -44 10
-22 -1 -22 -2 5 -12 28 -11 37 -27 15 -27 -9 0 -9 -3 1 -12 10 -11 15 -9 27 6
13 18 14 18 14 2 0 -32 -123 -266 -140 -266 -5 0 -12 5 -15 10 -7 11 -80 60
-90 60 -3 0 3 -12 12 -27 l18 -28 -35 25 c-36 25 -31 12 14 -34 13 -13 16 -21
8 -24 -9 -3 -9 -9 -1 -24 10 -19 10 -19 -18 -1 -15 10 -34 23 -41 30 -23 23
-52 35 -52 23 0 -6 -4 -8 -10 -5 -22 13 -8 -15 30 -62 22 -28 36 -54 32 -58
-4 -4 7 -6 25 -3 18 2 30 1 27 -4 -3 -4 -14 -8 -25 -8 -10 0 -19 -6 -19 -13 0
-18 -54 -57 -67 -49 -6 4 -12 16 -14 27 -6 28 -46 45 -106 45 -65 0 -68 13
-15 67 20 22 49 57 64 79 l26 39 -8 170 c-14 256 -33 413 -59 460 -28 54 -41
118 -50 245 -10 142 -35 187 -116 206 -16 3 -40 13 -52 20 -26 17 -55 78 -47
99 8 20 -50 140 -80 168 -30 26 -39 88 -20 132 8 18 13 23 14 13 0 -21 35 -41
58 -34 19 7 71 81 73 106 1 8 5 -1 9 -20 5 -18 16 -40 26 -47z m1267 56 c-6
-6 -19 -9 -29 -6 -17 3 -16 5 6 14 28 12 39 8 23 -8z m-1807 -21 c-18 -26 -22
-17 -5 14 6 11 13 17 16 15 3 -3 -2 -16 -11 -29z m1962 -68 c-21 -17 -24 -17
-30 -2 -13 32 -8 47 20 62 27 16 27 15 30 -12 2 -20 -3 -34 -20 -48z m-3372
23 c28 -18 18 -33 -23 -33 -18 0 -23 6 -23 25 0 29 11 31 46 8z m1337 -15 c2
-13 8 -32 12 -43 4 -11 -4 -3 -19 18 -14 21 -24 43 -20 48 8 14 21 3 27 -23z
m-69 -11 c18 -16 23 -30 19 -45 -8 -30 -21 -27 -25 6 l-4 27 -11 -25 -10 -24
-12 22 c-8 16 -9 28 -1 42 13 25 14 25 44 -3z m-87 -9 c-3 -8 -6 -5 -6 6 -1
11 2 17 5 13 3 -3 4 -12 1 -19z m834 -21 c-13 -13 -15 1 -4 30 7 17 8 17 11
-1 2 -10 -1 -23 -7 -29z m-581 8 c0 -8 -4 -15 -10 -15 -5 0 -10 7 -10 15 0 8
5 15 10 15 6 0 10 -7 10 -15z m-1291 -51 c2 -2 -14 4 -37 14 -23 9 -42 22 -42
29 0 10 58 -21 79 -43z m877 26 c8 0 14 -4 14 -10 0 -13 -17 -13 -25 0 -3 5
-13 6 -23 3 -15 -6 -15 -5 -2 11 8 11 16 14 18 7 2 -6 10 -11 18 -11z m167 6
c4 -10 1 -13 -8 -9 -8 3 -12 9 -9 14 7 12 11 11 17 -5z m-3 -76 c11 0 20 7 20
15 0 8 5 15 10 15 12 0 13 -20 1 -39 -20 -32 -82 16 -81 62 1 7 7 -3 15 -20 9
-22 21 -33 35 -33z m-226 29 c-6 -11 -24 -2 -24 11 0 5 7 7 15 4 8 -4 12 -10
9 -15z m46 -53 c14 -18 14 -19 -8 -7 -12 7 -20 17 -16 22 3 6 7 9 8 7 1 -2 8
-12 16 -22z m1350 10 c0 -2 -8 -10 -17 -17 -16 -13 -17 -12 -4 4 13 16 21 21
21 13z m-2360 -70 c0 -12 -5 -16 -16 -12 -9 3 -20 6 -25 6 -5 0 -9 9 -9 20 0
22 15 27 23 8 3 -7 6 -4 6 7 1 17 3 17 11 5 5 -8 10 -23 10 -34z m2410 -6 c0
-5 -4 -10 -10 -10 -5 0 -10 5 -10 10 0 6 5 10 10 10 6 0 10 -4 10 -10z m-780
-40 c-6 -12 -14 -19 -17 -17 -2 3 1 15 7 27 6 12 14 19 17 17 2 -3 -1 -15 -7
-27z m80 16 c0 -14 -29 -31 -38 -21 -6 6 18 35 29 35 5 0 9 -6 9 -14z m1674
-29 c-27 -32 -94 -57 -94 -34 0 4 15 14 33 22 17 8 43 23 57 34 35 28 37 17 4
-22z m-1587 11 c-3 -8 -6 -5 -6 6 -1 11 2 17 5 13 3 -3 4 -12 1 -19z m683 13
c0 -13 -29 -35 -37 -28 -7 8 15 37 28 37 5 0 9 -4 9 -9z m60 -59 c0 -21 -6
-44 -12 -52 -7 -8 -3 -6 10 4 21 18 22 18 22 1 0 -10 -7 -27 -17 -37 -13 -15
-14 -23 -5 -43 6 -14 18 -25 27 -25 8 0 15 -9 15 -20 0 -11 -4 -20 -10 -20 -5
0 -10 5 -10 11 0 13 -25 39 -38 39 -5 0 -15 7 -22 15 -10 12 -10 19 -2 27 7 7
12 16 12 20 0 13 -28 9 -32 -4 -3 -8 -12 -2 -22 14 -16 25 -17 29 -2 43 9 9
16 20 16 25 0 8 46 37 63 39 4 1 7 -16 7 -37z m-2491 -18 c2 -2 -8 -4 -22 -4
-18 0 -27 5 -27 15 0 13 4 14 23 4 12 -6 24 -13 26 -15z m-359 12 c0 -3 -4 -8
-10 -11 -5 -3 -10 -1 -10 4 0 6 5 11 10 11 6 0 10 -2 10 -4z m985 -43 c15 -20
9 -43 -10 -43 -13 0 -25 21 -25 46 0 19 20 18 35 -3z m-1018 -105 c-2 -24 -4
-7 -4 37 0 44 2 63 4 43 2 -21 2 -57 0 -80z m1919 76 c-9 -8 -16 -28 -16 -44
0 -22 -4 -28 -14 -24 -12 5 -13 11 -3 32 19 45 41 75 45 63 2 -6 -4 -18 -12
-27z m804 6 c0 -5 -5 -10 -11 -10 -5 0 -7 5 -4 10 3 6 8 10 11 10 2 0 4 -4 4
-10z m-1746 -36 c8 -21 8 -24 -3 -24 -5 0 -11 9 -14 20 -6 24 8 27 17 4z
m1196 -39 c-7 -20 -14 -34 -17 -31 -3 2 0 21 7 41 7 20 14 34 17 31 3 -2 0
-21 -7 -41z m-200 -16 c0 -19 5 -29 15 -29 8 0 15 -4 15 -9 0 -5 27 -7 60 -5
48 3 60 0 60 -11 0 -30 36 -14 64 28 26 39 28 40 21 12 -3 -16 -9 -43 -12 -60
-12 -60 -60 -114 -101 -115 -13 0 -32 -10 -42 -22 -17 -21 -19 -21 -43 -5 -32
21 -54 89 -60 184 -3 57 -2 70 9 66 8 -3 14 -18 14 -34z m170 37 c0 -3 -4 -8
-10 -11 -5 -3 -10 -1 -10 4 0 6 5 11 10 11 6 0 10 -2 10 -4z m-2073 -38 c-3
-8 -6 -5 -6 6 -1 11 2 17 5 13 3 -3 4 -12 1 -19z m2902 13 c11 -7 9 -10 -8
-16 -11 -3 -21 -13 -21 -21 0 -8 5 -12 10 -9 13 8 13 -6 0 -25 -9 -13 -11 -13
-20 0 -5 8 -8 21 -5 28 3 8 5 22 5 33 0 20 16 24 39 10z m235 -12 c-7 -12 -74
-42 -80 -36 -3 3 75 46 84 47 2 0 0 -5 -4 -11z m-3047 -21 c-3 -8 -6 -5 -6 6
-1 11 2 17 5 13 3 -3 4 -12 1 -19z m838 -3 l30 -25 -26 0 c-17 0 -32 9 -43 25
-22 33 -2 33 39 0z m785 0 c0 -8 5 -15 10 -15 6 0 10 -7 10 -16 0 -8 4 -13 9
-10 5 3 11 0 14 -8 3 -7 26 -19 51 -26 25 -7 46 -14 46 -16 0 -2 -11 -29 -25
-60 -14 -31 -25 -63 -25 -70 0 -8 -4 -14 -10 -14 -5 0 -10 6 -10 14 0 11 -8
12 -35 6 -20 -4 -38 -4 -41 1 -3 5 -13 9 -23 9 -10 0 -26 8 -35 19 -16 17 -16
24 -1 85 14 63 40 115 58 116 4 0 7 -7 7 -15z m1240 -46 c0 -4 -9 -11 -20 -14
-11 -3 -20 -12 -20 -20 0 -18 -37 -26 -44 -9 -8 21 55 76 71 62 7 -6 13 -14
13 -19z m-2693 -46 c-3 -10 -5 -4 -5 12 0 17 2 24 5 18 2 -7 2 -21 0 -30z
m2036 -5 c6 -53 -5 -138 -16 -120 -9 14 -27 16 -27 3 0 -5 14 -14 30 -20 24
-8 30 -16 30 -39 0 -36 15 -85 43 -137 21 -39 24 -64 41 -323 2 -23 6 -46 10
-49 3 -3 6 -43 6 -89 0 -63 -3 -83 -15 -88 -8 -3 -15 -16 -15 -29 0 -38 -37
-78 -68 -75 -25 3 -27 0 -28 -32 0 -19 -4 -50 -8 -67 -6 -28 -12 -33 -37 -33
-19 0 -29 5 -29 15 0 17 -35 55 -50 55 -5 0 -10 -14 -10 -31 0 -16 -4 -28 -9
-25 -9 6 10 100 28 134 22 41 14 81 -20 101 -38 23 -153 63 -231 81 -32 7 -58
17 -58 22 0 18 -65 108 -77 108 -7 0 -13 -10 -13 -22 -1 -19 -3 -17 -15 11
-13 29 -13 41 0 98 19 82 19 131 -1 178 -13 33 -13 41 -1 69 8 17 22 55 32 84
l17 52 28 -30 c24 -26 35 -30 82 -31 l53 0 -32 -16 c-28 -14 -38 -15 -73 -3
-22 7 -42 11 -43 9 -14 -16 -37 -137 -37 -188 0 -71 21 -110 71 -136 25 -14
29 -14 29 -1 0 8 -9 18 -20 21 -26 8 -60 75 -60 118 0 18 10 62 22 97 19 57
22 62 31 42 13 -29 21 -28 100 8 73 33 91 38 62 16 -19 -14 -19 -15 6 -38 32
-28 60 -32 104 -13 33 13 35 13 40 -8 10 -37 -3 -140 -21 -176 -14 -28 -15
-42 -7 -73 6 -21 7 -41 2 -44 -15 -9 -79 -130 -79 -148 0 -39 41 11 92 112 16
32 50 27 102 -15 49 -41 53 -57 35 -132 -8 -36 -7 -47 6 -60 13 -13 19 -13 35
-3 23 14 24 13 10 -22 -5 -14 -6 -26 -1 -26 25 0 45 131 22 152 -10 11 -15 9
-27 -6 -13 -18 -14 -17 -14 20 1 21 7 50 15 64 18 32 20 90 2 90 -11 0 -46 30
-73 63 -19 22 -24 89 -11 127 7 21 23 40 40 48 38 18 34 33 -5 21 -18 -5 -33
-9 -34 -9 -1 0 -2 32 -3 71 -1 48 -9 85 -23 116 -14 31 -18 47 -10 55 7 7 3
26 -14 62 l-24 51 43 12 c63 17 64 16 70 -29z m-2366 10 c-3 -8 -6 -5 -6 6 -1
11 2 17 5 13 3 -3 4 -12 1 -19z m3016 -4 c3 -4 2 -15 -3 -24 -7 -14 -5 -19 10
-23 14 -4 18 -10 14 -22 -5 -12 -9 -13 -14 -5 -5 9 -9 9 -14 1 -10 -16 -46
-14 -46 3 0 8 7 16 15 20 8 3 15 17 15 31 0 24 10 32 23 19z m-2946 -56 c-3
-8 -6 -5 -6 6 -1 11 2 17 5 13 3 -3 4 -12 1 -19z m966 -5 c9 -3 17 -10 17 -16
0 -6 6 -3 13 8 17 22 37 12 37 -17 0 -34 -22 -86 -39 -92 -9 -3 -22 -9 -30
-12 -11 -5 -12 -2 -7 12 4 11 10 36 12 57 5 35 3 39 -25 50 -17 6 -31 15 -31
20 0 5 8 6 18 2 9 -4 25 -10 35 -12z m2224 1 c-3 -3 -12 -4 -19 -1 -8 3 -5 6
6 6 11 1 17 -2 13 -5z m-1035 -21 c34 -30 23 -46 -27 -40 -57 6 -63 12 -40 37
22 24 42 25 67 3z m-2142 -25 c0 -5 -4 -8 -10 -8 -5 0 -10 10 -10 23 0 18 2
19 10 7 5 -8 10 -18 10 -22z m1674 -44 c15 -3 40 -4 56 -2 17 3 30 2 30 -2 0
-12 -52 -135 -61 -144 -14 -15 -11 -39 12 -91 19 -44 20 -52 8 -128 -14 -95
-14 -114 -4 -182 6 -45 5 -53 -18 -77 -15 -16 -37 -28 -51 -28 -14 0 -31 -9
-40 -21 -13 -19 -15 -10 -20 98 -7 161 -15 213 -32 213 -9 0 -14 11 -14 33 0
18 -5 38 -12 45 -17 17 -16 101 2 115 8 7 16 21 16 32 4 55 25 150 39 172 l16
24 24 -25 c13 -14 35 -28 49 -32z m-1597 14 c-3 -7 -5 -2 -5 12 0 14 2 19 5
13 2 -7 2 -19 0 -25z m2923 22 c0 -5 -9 -10 -21 -10 -11 0 -17 5 -14 10 3 6
13 10 21 10 8 0 14 -4 14 -10z m-2830 -44 c0 -3 -4 -8 -10 -11 -5 -3 -10 -1
-10 4 0 6 5 11 10 11 6 0 10 -2 10 -4z m2038 -234 c-14 -46 -22 -32 -19 34 1
31 -3 69 -10 85 -10 26 -9 32 7 44 18 13 19 10 26 -58 3 -41 2 -86 -4 -105z
m-2131 136 c-3 -7 -5 -2 -5 12 0 14 2 19 5 13 2 -7 2 -19 0 -25z m2923 12 c0
-23 -16 -26 -36 -6 -11 11 -11 16 -1 19 25 11 37 6 37 -13z m-840 0 c0 -5 -4
-10 -9 -10 -6 0 -13 5 -16 10 -3 6 1 10 9 10 9 0 16 -4 16 -10z m767 -32 c-3
-7 -5 -2 -5 12 0 14 2 19 5 13 2 -7 2 -19 0 -25z m-1997 -8 c0 -5 -7 -10 -16
-10 -8 0 -12 5 -9 10 3 6 10 10 16 10 5 0 9 -4 9 -10z m2031 -13 c-13 -13 -26
-3 -16 12 3 6 11 8 17 5 6 -4 6 -10 -1 -17z m1046 -34 c-3 -10 -5 -2 -5 17 0
19 2 27 5 18 2 -10 2 -26 0 -35z m-3080 11 c-3 -3 -12 -4 -19 -1 -8 3 -5 6 6
6 11 1 17 -2 13 -5z m-997 -79 c0 -43 -4 -75 -10 -75 -11 0 -14 133 -3 143 12
13 13 7 13 -68z m4077 13 c-3 -8 -6 -5 -6 6 -1 11 2 17 5 13 3 -3 4 -12 1 -19z
m-3094 -25 c-7 -2 -19 -2 -25 0 -7 3 -2 5 12 5 14 0 19 -2 13 -5z m2052 -3
c-3 -5 -13 -10 -21 -10 -8 0 -14 5 -14 10 0 6 9 10 21 10 11 0 17 -4 14 -10z
m43 -97 l37 -17 -33 -4 c-19 -2 -41 0 -50 4 -16 7 -22 9 -39 13 -8 2 26 19 40
20 4 1 24 -7 45 -16z m-789 -44 c25 -47 22 -56 -8 -37 -23 14 -37 50 -26 67 9
16 11 15 34 -30z m-1299 -113 c0 -2 -7 -7 -16 -10 -8 -3 -12 -2 -9 4 6 10 25
14 25 6z m2150 -27 c0 -6 9 -9 20 -6 11 3 18 1 14 -4 -8 -14 -40 -11 -54 6
-10 12 -10 15 4 15 9 0 16 -5 16 -11z m-2350 -9 c0 -5 -5 -10 -11 -10 -5 0 -7
5 -4 10 3 6 8 10 11 10 2 0 4 -4 4 -10z m1115 -80 c-20 -33 -69 17 -60 62 l7
29 30 -40 c16 -22 27 -45 23 -51z m-840 58 c30 -14 32 -24 5 -38 -17 -9 -20
-8 -20 10 0 11 -4 20 -10 20 -5 0 -10 5 -10 10 0 13 3 13 35 -2z m1899 -22
c-3 -15 -8 -25 -11 -23 -2 3 -1 17 3 31 3 15 8 25 11 23 2 -3 1 -17 -3 -31z
m-1854 -1 c0 -8 -4 -15 -10 -15 -5 0 -7 7 -4 15 4 8 8 15 10 15 2 0 4 -7 4
-15z m1945 5 c13 -6 15 -9 5 -9 -8 0 -22 4 -30 9 -18 12 -2 12 25 0z m-2728
-37 c-3 -10 -5 -4 -5 12 0 17 2 24 5 18 2 -7 2 -21 0 -30z m2803 6 c0 -11 -4
-18 -10 -14 -5 3 -7 12 -3 20 7 21 13 19 13 -6z m-2973 -21 c-3 -7 -5 -2 -5
12 0 14 2 19 5 13 2 -7 2 -19 0 -25z m1683 -18 c0 -10 -7 -23 -15 -30 -8 -7
-15 -25 -15 -41 0 -37 -10 -42 -65 -28 -72 18 -74 60 -5 83 22 7 40 22 48 39
13 27 15 28 33 11 10 -9 19 -25 19 -34z m1233 20 c-4 -16 -9 -17 -29 -8 -13 6
-21 15 -18 20 3 4 10 6 15 3 5 -4 9 -2 9 4 0 6 6 8 14 5 8 -3 12 -13 9 -24z
m-1043 -61 c118 -32 170 -58 170 -83 0 -12 -6 -31 -14 -42 -8 -11 -19 -48 -26
-82 -9 -52 -8 -66 5 -92 l16 -30 107 -2 c98 -1 132 -3 156 -7 5 0 1 -10 -8
-20 -11 -12 -15 -27 -12 -39 6 -16 1 -22 -23 -27 -17 -4 -33 -11 -36 -16 -4
-5 -14 -9 -25 -9 -14 0 -17 5 -12 23 5 19 3 20 -10 9 -9 -7 -23 -10 -32 -6 -9
3 -16 1 -16 -4 0 -6 10 -14 21 -17 17 -6 19 -9 8 -16 -8 -5 -25 -9 -39 -9 -15
0 -30 -4 -35 -9 -6 -5 -32 -11 -60 -13 l-50 -3 3 30 c5 45 -8 102 -19 84 -5
-8 -9 -28 -9 -45 0 -20 -6 -34 -16 -38 -28 -11 -34 -7 -34 21 0 33 -5 28 -13
-14 -6 -30 -4 -32 26 -36 l32 -4 -36 -1 -36 -2 -2 68 c-1 37 -6 83 -10 102
l-9 35 -1 -38 c-1 -41 -21 -43 -21 -2 0 18 -4 23 -15 19 -9 -4 -15 0 -15 8 0
21 -41 56 -70 60 -14 2 -26 11 -28 21 -3 15 0 18 18 12 37 -12 47 8 44 89 -1
41 -5 84 -9 96 -5 15 -1 26 12 35 24 19 36 18 123 -6z m-373 -41 c-3 -7 -5 -2
-5 12 0 14 2 19 5 13 2 -7 2 -19 0 -25z m1473 24 c0 -13 -12 -22 -22 -16 -10
6 -1 24 13 24 5 0 9 -4 9 -8z m-1505 -131 c-13 -14 -15 -12 -15 21 0 20 3 45
7 55 5 14 9 9 15 -21 7 -31 5 -43 -7 -55z m55 68 c0 -5 -4 -9 -10 -9 -5 0 -10
7 -10 16 0 8 5 12 10 9 6 -3 10 -10 10 -16z m87 -16 c18 -3 40 -14 49 -24 15
-17 14 -19 -6 -41 -12 -13 -29 -40 -37 -60 -15 -39 -27 -45 -52 -29 -11 7 -13
25 -8 80 6 60 5 72 -10 81 -15 10 -14 10 7 5 14 -3 39 -8 57 -12z m2061 -80
c35 -14 73 -33 84 -43 18 -14 19 -17 5 -23 -18 -7 -257 107 -257 122 0 9 28 0
168 -56z m-3438 16 c-14 -11 -76 -45 -138 -76 -89 -43 -116 -53 -125 -43 -8 8
-8 14 -2 17 6 2 69 30 140 62 141 64 163 72 125 40z m941 -12 c-7 -7 -14 -8
-21 -1 -6 6 -2 10 12 11 16 2 18 -1 9 -10z m-181 -5 c0 -5 -16 -16 -35 -25
-44 -21 -45 -15 -2 12 37 24 37 24 37 13z m540 -83 c0 -5 -7 -9 -15 -9 -15 0
-20 12 -9 23 8 8 24 -1 24 -14z m1316 -36 c-8 -8 -36 5 -36 17 0 7 6 7 21 0
11 -7 18 -14 15 -17z m-1438 -33 c-7 -10 -14 -17 -17 -15 -4 4 18 35 25 35 2
0 -1 -9 -8 -20z m-385 -22 c-1 -18 -2 -35 -2 -37 -1 -2 -10 4 -21 14 -19 17
-19 18 3 36 12 10 22 18 22 19 0 0 -1 -15 -2 -32z m1387 17 c-14 -17 -30 -20
-30 -6 0 5 8 12 18 14 9 3 19 5 21 6 2 0 -2 -6 -9 -14z m-624 -88 c-6 -111
-23 -220 -39 -241 -15 -18 -67 -10 -67 11 0 9 6 12 18 9 25 -8 53 18 55 50 2
27 -1 29 -30 28 -24 -1 -30 2 -26 13 3 8 13 13 22 10 20 -5 45 19 38 37 -3 6
-35 18 -72 26 -60 12 -66 16 -60 34 3 12 8 36 12 54 5 31 7 32 57 32 30 0 60
6 72 15 10 8 20 15 22 15 1 0 1 -42 -2 -93z m-201 51 c-4 -13 -9 -36 -12 -51
-5 -23 -9 -28 -27 -23 -11 3 -38 9 -58 12 -21 4 -38 10 -38 15 0 4 -8 10 -18
13 -21 7 -25 37 -8 48 6 4 46 8 90 8 77 0 78 0 71 -22z m-618 -5 c-4 -3 1 -12
11 -19 15 -11 11 -18 -41 -72 -31 -33 -57 -65 -57 -71 0 -6 -23 1 -52 16 l-51
26 24 18 c24 18 24 18 29 -4 8 -31 55 -36 70 -7 14 26 6 50 -16 50 -24 0 0 26
45 50 39 20 48 24 38 13z m166 -32 c-15 -22 -32 -36 -37 -31 -6 6 48 68 62 70
2 0 -9 -18 -25 -39z m1486 25 c9 -11 6 -15 -14 -18 -28 -6 -27 -6 -19 16 8 20
18 20 33 2z m-282 -2 c-3 -3 -12 -4 -19 -1 -8 3 -5 6 6 6 11 1 17 -2 13 -5z
m523 -20 c0 -2 -7 -4 -15 -4 -8 0 -15 4 -15 10 0 5 7 7 15 4 8 -4 15 -8 15
-10z m-2435 -34 c3 -5 51 -33 106 -61 55 -28 98 -53 96 -56 -5 -5 -185 81
-209 100 -10 8 -18 17 -18 21 0 10 18 7 25 -4z m2403 -9 c3 -8 -1 -12 -9 -9
-7 2 -15 10 -17 17 -3 8 1 12 9 9 7 -2 15 -10 17 -17z m132 -19 c0 -5 -20 -18
-44 -29 -31 -16 -46 -19 -54 -11 -8 8 -5 14 11 22 12 7 23 21 25 34 3 21 5 21
33 7 16 -9 29 -19 29 -23z m-219 -32 c35 -32 61 -61 58 -63 -22 -19 -232 -117
-239 -112 -18 11 -10 24 25 41 27 13 34 21 30 35 -8 23 8 25 25 4 17 -20 50
-19 50 1 0 9 -9 27 -20 41 -26 33 -25 41 5 55 19 9 22 14 14 25 -6 7 -18 13
-25 13 -8 0 -14 5 -14 10 0 24 33 6 91 -50z m-2371 35 c-15 -19 -101 -66 -112
-63 -10 4 100 78 115 78 5 0 4 -7 -3 -15z m1142 -10 c12 -27 19 -30 34 -15 13
13 10 -41 -4 -65 -10 -18 -11 -17 -12 13 0 36 -20 45 -21 10 l0 -23 -9 23 c-5
12 -14 22 -20 22 -7 0 -8 6 0 19 6 12 6 22 1 26 -5 3 -13 -4 -16 -15 -5 -17
-10 -19 -21 -9 -14 12 -9 33 6 24 5 -3 11 -1 15 5 11 18 35 11 47 -15z m1123
-3 c-7 -8 -35 7 -35 18 0 6 7 6 20 -2 10 -7 17 -14 15 -16z m830 10 c-3 -3
-11 0 -18 7 -9 10 -8 11 6 5 10 -3 15 -9 12 -12z m-1227 -16 c5 -22 -19 -51
-28 -36 -10 17 1 61 14 57 6 -2 12 -11 14 -21z m217 3 c10 -30 0 -33 -13 -4
-6 14 -7 25 -2 25 5 0 12 -9 15 -21z m-2270 -8 c-3 -6 -14 -11 -23 -11 -13 0
-13 2 4 14 21 15 30 14 19 -3z m3384 -170 c2 -120 -6 -77 -12 64 -3 85 -2 109
3 70 4 -33 8 -93 9 -134z m-3139 160 c0 -11 -95 -81 -110 -81 -22 0 -8 20 38
53 47 36 72 45 72 28z m612 -25 c-2 -16 2 -32 8 -36 10 -6 10 -14 -1 -38 -7
-17 -17 -28 -21 -26 -4 3 -4 13 2 24 7 13 6 21 -4 29 -11 9 -17 7 -29 -9 -13
-18 -19 -20 -36 -11 -12 7 -21 14 -21 16 0 3 17 23 38 45 43 47 69 49 64 6z
m180 12 c-7 -7 -12 -8 -12 -2 0 6 3 14 7 17 3 4 9 5 12 2 2 -3 -1 -11 -7 -17z
m838 -13 c0 -21 -5 -25 -28 -25 -34 0 -52 -16 -52 -46 0 -30 24 -48 55 -40 18
5 25 2 25 -9 0 -14 -17 -20 -48 -16 -8 1 -21 -4 -29 -11 -14 -12 -16 -6 -11
59 3 45 2 70 -4 67 -6 -4 -8 2 -6 12 3 18 33 31 76 33 17 1 22 -4 22 -24z
m-1867 -134 c4 -79 4 -142 2 -139 -10 9 -27 239 -20 265 3 14 7 24 9 22 2 -2
6 -69 9 -148z m277 119 c-9 -6 -16 -6 -18 0 -2 6 -9 8 -15 4 -7 -3 -3 2 7 10
14 11 23 13 30 6 8 -8 6 -14 -4 -20z m983 15 c18 -13 18 -14 -1 -24 -17 -9
-23 -6 -36 14 -15 23 -15 25 1 25 10 0 26 -7 36 -15z m287 5 c0 -5 -7 -10 -15
-10 -8 0 -15 5 -15 10 0 6 7 10 15 10 8 0 15 -4 15 -10z m160 -7 c0 -11 -20
-40 -20 -29 0 4 -9 -2 -21 -15 -18 -21 -20 -21 -14 -4 4 11 10 28 12 38 5 16
43 25 43 10z m-1743 -60 c-3 -10 -5 -2 -5 17 0 19 2 27 5 18 2 -10 2 -26 0
-35z m277 22 c-4 -8 -11 -15 -16 -15 -6 0 -5 6 2 15 7 8 14 15 16 15 2 0 1 -7
-2 -15z m51 -30 c-51 -46 -55 -49 -55 -39 0 10 84 84 95 84 5 0 -12 -20 -40
-45z m305 -33 c74 -38 185 -94 245 -124 103 -53 147 -74 335 -161 451 -207
511 -240 486 -265 -4 -4 -25 3 -46 16 -45 26 -50 27 -50 9 0 -7 -14 -28 -31
-47 -32 -37 -30 -29 9 33 13 22 22 40 20 42 -12 10 -169 95 -177 95 -21 0
-912 439 -935 461 -23 21 17 5 144 -59z m1277 46 c-3 -8 -6 -5 -6 6 -1 11 2
17 5 13 3 -3 4 -12 1 -19z m-1487 5 c0 -11 -73 -83 -84 -83 -5 0 1 11 14 25
13 14 20 28 17 32 -11 10 13 33 34 33 11 0 19 -3 19 -7z m1058 -17 c3 -12 -1
-17 -10 -14 -7 3 -15 13 -16 22 -3 12 1 17 10 14 7 -3 15 -13 16 -22z m-491
-17 c-30 -42 6 -67 46 -31 20 16 20 16 13 -3 -5 -11 -11 -28 -13 -38 -4 -13
-11 -16 -27 -11 -23 8 -66 34 -66 41 0 2 12 20 26 39 29 37 46 40 21 3z m-759
1 c-7 -10 -14 -18 -15 -16 -6 6 9 36 18 36 5 0 4 -9 -3 -20z m1066 -24 c-3
-14 -13 -26 -21 -26 -11 0 -13 5 -8 18 4 9 10 25 12 35 9 29 25 3 17 -27z
m-814 27 c0 -5 -16 -21 -35 -36 -42 -33 -47 -24 -7 15 27 27 42 34 42 21z
m995 -42 c3 -5 1 -12 -5 -16 -5 -3 -10 1 -10 9 0 18 6 21 15 7z m-1000 -46
c-16 -13 -31 -22 -34 -19 -3 3 8 16 24 29 39 30 47 23 10 -10z m85 -15 c-25
-22 -49 -39 -55 -39 -5 0 12 20 40 44 27 24 52 41 54 39 3 -3 -15 -22 -39 -44z
m-176 15 c-4 -8 -11 -15 -16 -15 -6 0 -5 6 2 15 7 8 14 15 16 15 2 0 1 -7 -2
-15z m716 -15 c0 -11 -7 -20 -15 -20 -18 0 -19 12 -3 28 16 16 18 15 18 -8z
m-467 -7 c-10 -10 -31 -29 -48 -43 -21 -17 -18 -12 10 18 21 23 43 42 47 42 5
0 1 -8 -9 -17z m558 -10 c1 -10 1 -22 0 -27 -1 -5 10 -1 24 8 27 18 27 17 20
-6 -11 -36 -19 -39 -59 -23 -37 15 -37 16 -19 40 21 29 33 31 34 8z m488 -240
c15 -37 31 -43 31 -13 0 11 5 20 11 20 5 0 9 -8 8 -17 -3 -31 1 -36 16 -23 8
7 15 23 15 36 0 33 16 30 23 -3 6 -34 3 -39 -33 -58 -25 -13 -32 -13 -70 3
l-42 17 6 50 c3 28 7 95 8 150 l2 100 6 -115 c3 -63 11 -130 19 -147z m544
243 c10 -11 17 -12 25 -4 8 8 15 6 26 -5 14 -14 12 -16 -17 -28 -17 -7 -35
-14 -38 -16 -4 -2 -9 4 -12 14 -2 10 -8 26 -12 36 -9 21 8 23 28 3z m-1493
-26 c-5 -8 -21 -26 -35 -39 -22 -20 -25 -21 -22 -5 6 35 27 63 46 61 15 -1 17
-5 11 -17z m870 -15 c0 -14 -4 -25 -10 -25 -11 0 -14 33 -3 43 11 11 13 8 13
-18z m217 -17 c-3 -7 -5 -2 -5 12 0 14 2 19 5 13 2 -7 2 -19 0 -25z m-1062
-18 c-21 -22 -44 -40 -49 -40 -6 0 8 18 29 40 21 22 44 40 49 40 6 0 -8 -18
-29 -40z m52 -38 c-26 -26 -47 -41 -47 -34 0 14 82 93 89 86 3 -3 -16 -26 -42
-52z m503 23 c0 -17 -4 -23 -15 -19 -11 5 -12 11 -4 25 13 26 19 24 19 -6z
m-428 -47 c-17 -18 -34 -29 -38 -26 -3 4 9 20 28 36 43 39 51 31 10 -10z m506
-2 c-2 -10 -8 -13 -16 -7 -7 4 -10 15 -6 25 8 21 28 6 22 -18z m628 19 c-3 -8
-2 -14 2 -14 28 5 34 -3 12 -16 -14 -8 -28 -14 -32 -15 -10 0 -10 44 -1 53 12
13 25 7 19 -8z m594 -27 c0 -6 -7 -5 -15 2 -8 7 -15 17 -15 22 0 6 7 5 15 -2
8 -7 15 -17 15 -22z m-1651 5 c-23 -29 -63 -63 -68 -57 -3 3 12 21 34 39 45
39 54 43 34 18z m758 -40 c-3 -10 -5 -2 -5 17 0 19 2 27 5 18 2 -10 2 -26 0
-35z m-693 14 c-3 -7 -25 -28 -47 -47 l-42 -35 29 40 c47 64 48 65 57 60 4 -3
6 -11 3 -18z m-437 -19 c-3 -7 -5 -2 -5 12 0 14 2 19 5 13 2 -7 2 -19 0 -25z
m160 -15 c-3 -10 -5 -2 -5 17 0 19 2 27 5 18 2 -10 2 -26 0 -35z m693 37 c0
-5 -4 -10 -9 -10 -6 0 -13 5 -16 10 -3 6 1 10 9 10 9 0 16 -4 16 -10z m-340
-17 c0 -10 -72 -83 -83 -83 -4 0 9 20 30 45 35 42 53 55 53 38z m28 -84 c-42
-49 -49 -55 -62 -42 -9 9 85 104 96 97 4 -3 -11 -27 -34 -55z m450 26 c-9 -9
-30 14 -23 25 6 9 10 8 17 -4 6 -10 8 -19 6 -21z m312 20 c0 -2 -9 -9 -20 -15
-16 -9 -20 -8 -20 5 0 8 9 15 20 15 11 0 20 -2 20 -5z m-1610 -31 c0 -14 -3
-14 -15 -4 -8 7 -15 14 -15 16 0 2 7 4 15 4 8 0 15 -7 15 -16z m950 -3 c0 -16
-78 -96 -86 -88 -5 4 -4 11 1 15 6 4 23 24 38 45 27 35 47 48 47 28z m587 -13
c-3 -8 -6 -5 -6 6 -1 11 2 17 5 13 3 -3 4 -12 1 -19z m653 -25 c0 -79 -13
-203 -21 -203 -5 0 -9 54 -9 120 0 100 3 120 15 120 11 0 15 -11 15 -37z
m-1180 13 c0 -8 -5 -18 -11 -21 -6 -4 -23 -25 -39 -46 -16 -22 -31 -36 -34
-31 -2 4 11 28 30 51 19 24 34 48 34 52 0 5 5 9 10 9 6 0 10 -6 10 -14z m-883
-45 c10 -6 15 -11 11 -11 -4 0 -24 10 -44 22 -32 19 -34 23 -18 28 13 5 21 2
26 -11 4 -9 15 -22 25 -28z m595 -83 c-2 -60 -7 -108 -12 -108 -4 0 -8 55 -9
122 0 96 2 118 12 107 8 -10 11 -48 9 -121z m358 100 c0 -12 -62 -68 -74 -68
-3 0 7 18 22 40 27 39 52 52 52 28z m-570 -23 c0 -1 -7 -8 -15 -15 -13 -10
-15 -9 -15 8 0 15 5 20 15 16 8 -4 15 -7 15 -9z m257 -105 c-2 -93 -5 -120
-16 -120 -8 0 -11 6 -7 16 3 9 6 63 6 120 0 60 4 104 10 104 6 0 8 -48 7 -120z
m1310 58 c-2 -13 -4 -3 -4 22 0 25 2 35 4 23 2 -13 2 -33 0 -45z m-1269 -70
l-2 -123 -5 115 c-4 63 -5 118 -3 123 9 22 12 -5 10 -115z m332 112 c0 -6 -16
-27 -36 -48 -37 -38 -37 -31 0 25 21 33 36 42 36 23z m724 -26 c8 -21 -12 -17
-24 6 -8 16 -8 18 4 14 8 -3 17 -12 20 -20z m-1644 -9 c7 -8 8 -15 2 -15 -5 0
-15 7 -22 15 -7 8 -8 15 -2 15 5 0 15 -7 22 -15z m955 -31 c-19 -25 -35 -49
-35 -54 0 -4 -7 -11 -16 -14 -12 -5 -10 2 8 26 13 18 33 45 44 60 10 15 22 28
26 28 5 0 -8 -21 -27 -46z m822 14 c-3 -8 -6 -5 -6 6 -1 11 2 17 5 13 3 -3 4
-12 1 -19z m-1617 -29 c-46 -33 -72 -39 -45 -9 10 11 24 20 30 20 7 0 18 7 25
15 7 8 16 12 22 9 5 -3 -9 -19 -32 -35z m510 19 c0 -19 -2 -20 -10 -8 -13 19
-13 30 0 30 6 0 10 -10 10 -22z m1030 12 c-20 -13 -33 -13 -25 0 3 6 14 10 23
10 15 0 15 -2 2 -10z m40 0 c0 -5 -2 -10 -4 -10 -3 0 -8 5 -11 10 -3 6 -1 10
4 10 6 0 11 -4 11 -10z m-1670 -38 c0 -1 -9 2 -20 8 -11 6 -20 15 -20 20 0 6
9 2 20 -7 11 -10 20 -19 20 -21z m950 -7 c-29 -47 -37 -39 -9 9 12 20 24 35
26 32 3 -3 -5 -21 -17 -41z m-316 -72 c-3 -60 -8 -110 -10 -112 -2 -2 -4 46
-4 107 0 71 4 112 10 112 7 0 9 -36 4 -107z m105 85 c-9 -16 -14 -19 -17 -9
-2 7 2 17 9 22 20 13 21 11 8 -13z m835 13 c3 -5 -1 -12 -10 -15 -27 -11 -37
-7 -24 9 14 17 26 19 34 6z m-1027 -43 c-3 -7 -5 -2 -5 12 0 14 2 19 5 13 2
-7 2 -19 0 -25z m133 6 c0 -8 -4 -14 -8 -14 -4 0 -8 9 -8 19 0 11 4 17 8 15 4
-3 8 -12 8 -20z m940 -44 l-7 -45 -1 60 c-1 37 2 54 7 45 5 -8 5 -35 1 -60z
m-33 38 c-3 -8 -6 -5 -6 6 -1 11 2 17 5 13 3 -3 4 -12 1 -19z m-87 2 c0 -5 -5
-10 -11 -10 -5 0 -7 5 -4 10 3 6 8 10 11 10 2 0 4 -4 4 -10z m-783 -207 c-2
-38 -3 -7 -3 67 0 74 1 105 3 68 2 -38 2 -98 0 -135z m40 15 c-2 -35 -3 -7 -3
62 0 69 1 97 3 63 2 -35 2 -91 0 -125z m114 155 c-8 -15 -10 -15 -11 -2 0 17
10 32 18 25 2 -3 -1 -13 -7 -23z m836 -80 c-2 -21 -4 -4 -4 37 0 41 2 58 4 38
2 -21 2 -55 0 -75z m-683 65 c-6 -20 -5 -21 10 -9 14 12 16 11 16 -5 1 -16 3
-15 15 6 13 22 14 23 15 5 l1 -20 15 20 c8 11 18 20 22 20 7 0 22 -146 16
-153 -1 -2 -39 16 -83 40 -80 44 -81 45 -61 63 11 10 22 26 25 36 4 11 9 19
11 19 3 0 2 -10 -2 -22z m-79 -12 c0 -15 -5 -22 -12 -19 -16 6 -16 16 -1 31 7
7 12 12 13 12 0 0 0 -11 0 -24z m-148 -8 c-3 -8 -6 -5 -6 6 -1 11 2 17 5 13 3
-3 4 -12 1 -19z m40 -75 c-2 -16 -4 -5 -4 22 0 28 2 40 4 28 2 -13 2 -35 0
-50z m90 -140 c-2 -37 -3 -9 -3 62 0 72 1 102 3 68 2 -34 2 -93 0 -130z m700
110 c-2 -16 -4 -5 -4 22 0 28 2 40 4 28 2 -13 2 -35 0 -50z m-1162 17 c3 -5
-1 -10 -9 -10 -8 0 -18 5 -21 10 -3 6 1 10 9 10 8 0 18 -4 21 -10z m492 -22
c-3 -8 -6 -5 -6 6 -1 11 2 17 5 13 3 -3 4 -12 1 -19z m-360 -58 c5 0 18 -9 28
-20 10 -11 15 -20 11 -20 -5 0 -96 56 -126 78 -2 2 2 7 9 11 9 6 22 -1 41 -20
15 -16 32 -29 37 -29z m450 -162 c-1 -40 -3 -8 -3 72 0 80 2 112 3 73 2 -40 2
-106 0 -145z m109 -9 c-6 -104 -5 -119 8 -119 23 0 19 -28 -5 -35 -22 -7 -79
12 -79 26 0 5 3 8 8 8 30 -5 32 3 32 119 0 64 3 127 6 140 l7 23 15 -22 c12
-17 13 -42 8 -140z m-438 93 l15 -23 -39 22 c-53 30 -53 31 -20 27 16 -2 35
-13 44 -26z m85 -29 l5 -41 -37 21 -36 22 28 3 c20 2 27 9 27 24 0 33 7 17 13
-29z m827 3 c0 -3 -9 -6 -19 -6 -14 0 -18 5 -14 20 4 16 7 17 19 5 8 -7 14
-16 14 -19z m-100 -35 c0 -12 -20 -25 -27 -18 -7 7 6 27 18 27 5 0 9 -4 9 -9z
m-642 -40 l16 -24 -29 16 c-56 30 -63 38 -31 35 17 -2 35 -13 44 -27z m439
-13 c-3 -8 -6 -5 -6 6 -1 11 2 17 5 13 3 -3 4 -12 1 -19z m108 13 c3 -5 1 -12
-5 -16 -5 -3 -10 1 -10 9 0 18 6 21 15 7z m-452 -63 c7 -5 21 -6 33 -3 15 3
24 -2 32 -20 l12 -25 -33 16 c-17 9 -52 28 -77 42 -42 25 -43 27 -20 32 19 5
27 1 33 -14 4 -11 13 -24 20 -28z m371 23 c6 -10 -22 -37 -29 -29 -8 7 5 38
15 38 5 0 11 -4 14 -9z m-88 -26 c13 -12 12 -15 -6 -25 -18 -9 -20 -8 -20 15
0 29 5 31 26 10z"/>
<path d="M2110 4000 c0 -13 18 -22 24 -11 3 5 -1 11 -9 15 -8 3 -15 1 -15 -4z"/>
<path d="M1267 2913 c-4 -3 -7 -17 -7 -30 0 -19 5 -23 29 -23 32 0 48 24 30
46 -12 15 -41 19 -52 7z"/>
<path d="M3846 1855 c4 -8 8 -15 10 -15 2 0 4 7 4 15 0 8 -4 15 -10 15 -5 0
-7 -7 -4 -15z"/>
<path d="M1280 1830 c0 -13 7 -20 18 -20 24 0 32 8 25 26 -8 22 -43 17 -43 -6z"/>
<path d="M2635 939 c-9 -28 26 -84 53 -85 28 -2 28 18 2 61 -25 41 -47 50 -55
24z"/>
<path d="M1930 3413 c0 -23 12 -43 26 -43 19 0 18 7 -6 32 -11 12 -20 17 -20
11z"/>
<path d="M1842 3300 c0 -14 2 -19 5 -12 2 6 2 18 0 25 -3 6 -5 1 -5 -13z"/>
<path d="M1870 3295 c0 -8 5 -15 10 -15 6 0 10 7 10 15 0 8 -4 15 -10 15 -5 0
-10 -7 -10 -15z"/>
<path d="M1843 3143 c-7 -18 42 -67 58 -58 14 9 11 42 -7 59 -20 21 -43 20
-51 -1z m37 -23 c0 -5 -5 -10 -11 -10 -5 0 -7 5 -4 10 3 6 8 10 11 10 2 0 4
-4 4 -10z"/>
<path d="M1804 3089 c-3 -6 0 -18 9 -26 13 -13 14 -12 10 11 -6 29 -9 31 -19
15z"/>
<path d="M1760 3035 c-17 -21 -5 -45 24 -45 28 0 37 17 24 43 -11 21 -31 22
-48 2z"/>
<path d="M1588 2610 c5 -14 7 -32 5 -40 -2 -8 2 -5 9 8 9 19 8 26 -6 40 -16
16 -17 16 -8 -8z"/>
<path d="M1611 2333 c-1 -12 4 -25 9 -28 12 -7 12 2 0 30 -8 19 -9 19 -9 -2z"/>
<path d="M2700 3568 c0 -4 4 -8 9 -8 6 0 12 4 15 8 3 5 -1 9 -9 9 -8 0 -15 -4
-15 -9z"/>
<path d="M2792 3510 c0 -14 2 -19 5 -12 2 6 2 18 0 25 -3 6 -5 1 -5 -13z"/>
<path d="M2960 3495 c0 -7 6 -18 14 -24 12 -10 17 -8 26 8 6 12 9 21 8 22 -23
6 -48 3 -48 -6z"/>
<path d="M2801 3437 c-6 -6 -11 -29 -11 -51 l1 -41 14 33 c8 17 16 32 19 32 3
0 3 -15 0 -32 l-5 -33 15 25 c21 34 20 53 -3 67 -14 9 -21 9 -30 0z"/>
<path d="M2991 3326 c-13 -33 -9 -43 8 -22 7 8 11 23 8 33 -3 14 -6 12 -16
-11z"/>
<path d="M2956 3313 c-6 -14 -5 -15 5 -6 7 7 10 15 7 18 -3 3 -9 -2 -12 -12z"/>
<path d="M3059 3294 c-10 -13 -10 -17 2 -24 17 -11 45 13 35 29 -10 15 -21 14
-37 -5z m18 -16 c-3 -8 -6 -5 -6 6 -1 11 2 17 5 13 3 -3 4 -12 1 -19z"/>
<path d="M3300 3103 c0 -13 -4 -23 -10 -23 -5 0 -6 7 -3 17 4 11 3 14 -5 9
-22 -13 -13 -36 13 -36 26 0 32 14 15 40 -8 12 -10 11 -10 -7z"/>
<path d="M3340 3170 c0 -19 3 -21 12 -12 9 9 9 15 0 24 -9 9 -12 7 -12 -12z"/>
<path d="M2250 2891 c0 -5 5 -13 10 -16 6 -3 10 -2 10 4 0 5 -4 13 -10 16 -5
3 -10 2 -10 -4z"/>
<path d="M2351 2864 c-14 -10 -32 -14 -48 -9 -23 5 -24 5 -9 -10 18 -19 67
-13 86 10 17 20 -4 26 -29 9z"/>
<path d="M2710 2160 c20 -13 53 -13 45 0 -3 6 -18 10 -33 10 -21 0 -24 -2 -12
-10z"/>
<path d="M2210 2259 c0 -11 4 -18 10 -14 5 3 7 12 3 20 -7 21 -13 19 -13 -6z"/>
</g>
</svg>
